# xmcd
#
# Track frame offsets: 
#        158
#        22578
#        37638
#        54080
#        71960
#        91885
#        110025
#        122023
#        138750
#        154790
#        168245
#        187283
#        199213
#        215405
#        231550
#        251400
#        269988
#        293453
#
# Disc length: 4151 seconds
#
# Revision: 6
# Processed by: cddbd v1.5.2PL0 Copyright (c) Steve Scherf et al.
# Submitted via: ExactAudioCopy v0.99pb5
#
DISCID=01103512
DTITLE=Александр Новиков - Вези Меня, Извозчик
DYEAR=1984
DGENRE=Chanson
TTITLE0=Вези Меня, Извозчик
TTITLE1=Куда Ведут Пути-Дорожки
TTITLE2=Я Вышел Родом Из Еврейского Квартала
TTITLE3=Город Древний
TTITLE4=Гостиничная История
TTITLE5=В Захолустном Ресторане
TTITLE6=Рублики-Копеечки
TTITLE7=Похороны Абрама
TTITLE8=Кляузник-Сосед
TTITLE9=Телефонный Разговор
TTITLE10=Фаэтон
TTITLE11=Меня Ещё Не Раз Посадят В Лужу...
TTITLE12=Помнишь, Девочка?...
TTITLE13=Вы Уезжаете...
TTITLE14=Катилась По Асфальту...
TTITLE15=Улица Восточная
TTITLE16=Развязать Бы Мой Язык
TTITLE17=В Магазине Грампластинок
EXTD=
EXTT0=
EXTT1=
EXTT2=
EXTT3=
EXTT4=
EXTT5=
EXTT6=
EXTT7=
EXTT8=
EXTT9=
EXTT10=
EXTT11=
EXTT12=
EXTT13=
EXTT14=
EXTT15=
EXTT16=
EXTT17=
PLAYORDER=
